# xmcd CD database file
#
# Track frame offsets:
#	150
#	12402
#	23721
#	34367
#	48292
#	62513
#	73613
#	84123
#	93123
#	105870
#	119561
#	131798
#	144938
#	159241
#	169661
#	182411
#	197389
#
# Disc length: 2782 seconds
#
# Revision: 0
# Processed by: cddbd v1.5.2PL0 Copyright (c) Steve Scherf et al.
# Submitted via: CDex 1.70beta2
#
DISCID=cb0adc11
DTITLE=Ray Charles - The very best of the early years CD2
DYEAR=2006
DGENRE=Blues
TTITLE0=Honey, honey
TTITLE1=She's on the ball
TTITLE2=TH' ego song
TTITLE3=Late in the evening blues
TTITLE4=Some day
TTITLE5=I'll do anything but work
TTITLE6=I wonder who's kssing her now?
TTITLE7=All to myself alone
TTITLE8=Lonely boy
TTITLE9=Baby let me hold your hand
TTITLE10=I'm glad for your sake
TTITLE11=Baby won't you please come home
TTITLE12=Kissa me baby
TTITLE13=Hey now
TTITLE14=The snow is falling
TTITLE15=I'm wonderin' and wonderin'
TTITLE16=Back home
EXTD=YEAR: 2006
EXTT0=
EXTT1=
EXTT2=
EXTT3=
EXTT4=
EXTT5=
EXTT6=
EXTT7=
EXTT8=
EXTT9=
EXTT10=
EXTT11=
EXTT12=
EXTT13=
EXTT14=
EXTT15=
EXTT16=
PLAYORDER=
